<?xml version="1.0" encoding="UTF-8" standalone="no"?>
<!DOCTYPE svg PUBLIC "-//W3C//DTD SVG 1.1//EN" "http://www.w3.org/Graphics/SVG/1.1/DTD/svg11.dtd">
<svg width="100%" height="100%" viewBox="0 0 800 330" version="1.1" xmlns="http://www.w3.org/2000/svg" xmlns:xlink="http://www.w3.org/1999/xlink" xml:space="preserve" xmlns:serif="http://www.serif.com/" style="fill-rule:evenodd;clip-rule:evenodd;stroke-linejoin:round;stroke-miterlimit:1.41421;">
    <g transform="matrix(4.10353,0,0,4.10353,393.987,4.73808)">
        <path d="M0,47.914L11.967,47.914L14.468,0L-2.501,0L0,47.914Z" style="fill:rgb(33,56,112);fill-rule:nonzero;"/>
    </g>
    <g transform="matrix(4.10353,0,0,4.10353,134.149,221.77)">
        <path d="M0,-27.903C-1.308,-26.17 -3.368,-25.304 -6.179,-25.304C-8.958,-25.304 -11.027,-26.17 -12.383,-27.903C-13.74,-29.636 -14.418,-31.99 -14.418,-34.965C-14.418,-41.569 -11.672,-44.872 -6.179,-44.872C-0.752,-44.872 1.961,-41.569 1.961,-34.965C1.961,-31.99 1.307,-29.636 0,-27.903M-10.201,2.601L-2.452,2.601C1.307,2.601 4.086,2.993 5.885,3.778C7.683,4.562 8.583,5.985 8.583,8.044C8.583,10.594 7.062,12.605 4.021,14.076C0.981,15.547 -3.221,16.284 -8.583,16.284C-12.146,16.284 -14.917,15.695 -16.895,14.518C-18.874,13.341 -19.862,11.722 -19.862,9.662C-19.862,7.537 -18.938,5.829 -17.091,4.537C-15.244,3.245 -12.947,2.601 -10.201,2.601M53.063,-52.889C49.663,-52.889 46.516,-51.949 43.623,-50.069C40.729,-48.189 38.432,-45.713 36.732,-42.639L35.997,-42.639L33.79,-52.915L22.461,-52.915L3.335,-52.915C2.747,-53.045 1.398,-53.25 -0.711,-53.528C-2.82,-53.805 -4.643,-53.945 -6.179,-53.945C-13.405,-53.945 -18.963,-52.309 -22.854,-49.041C-26.745,-45.771 -28.689,-41.144 -28.689,-35.162C-28.689,-31.434 -27.848,-28.198 -26.164,-25.451C-24.48,-22.705 -22.2,-20.711 -19.322,-19.468C-21.611,-18.128 -23.361,-16.762 -24.57,-15.373C-25.78,-13.983 -26.384,-12.242 -26.384,-10.15C-26.384,-8.483 -25.813,-6.905 -24.668,-5.418C-23.524,-3.929 -22.184,-2.859 -20.646,-2.206C-24.636,-1.257 -27.66,0.328 -29.719,2.551C-31.779,4.775 -32.809,7.537 -32.809,10.839C-32.809,15.646 -30.791,19.38 -26.752,22.045C-22.715,24.71 -16.871,26.042 -9.22,26.042C0.785,26.042 8.459,24.277 13.805,20.746C19.151,17.215 21.824,12.245 21.824,5.837C21.824,0.835 20.246,-2.957 17.091,-5.541C13.936,-8.123 9.35,-9.415 3.335,-9.415L-5.983,-9.415C-11.476,-9.415 -14.222,-10.494 -14.222,-12.651C-14.222,-14.09 -13.454,-15.398 -11.917,-16.575L-9.71,-16.33L-7.013,-16.182C0.277,-16.182 5.975,-17.825 10.078,-21.111C14.181,-24.397 16.233,-28.982 16.233,-34.867C16.233,-37.908 15.448,-40.654 13.879,-43.106L22.461,-45.313L22.461,1.914L37.418,1.914L37.418,-25.991C37.418,-30.404 38.75,-32.782 41.416,-35.234C44.081,-37.686 47.799,-38.912 52.573,-38.912C54.305,-38.912 56.285,-38.748 57.495,-38.422L56.625,-52.889L53.063,-52.889Z" style="fill:rgb(33,56,112);fill-rule:nonzero;"/>
    </g>
    <g transform="matrix(4.10353,0,0,4.10353,576.77,145.098)">
        <path d="M0,9.466C-3.793,9.466 -6.563,8.191 -8.313,5.641C-10.062,3.091 -10.936,-1.127 -10.936,-7.013L-10.936,-8.631C-10.871,-13.861 -9.988,-17.613 -8.288,-19.886C-6.588,-22.157 -3.891,-23.294 -0.196,-23.294C3.335,-23.294 5.926,-21.945 7.577,-19.248C9.228,-16.551 10.054,-12.505 10.054,-7.11C10.054,3.941 6.702,9.466 0,9.466M19.813,-27.757C16.151,-32.759 11.084,-35.261 4.61,-35.261C-2.256,-35.261 -7.437,-32.546 -10.936,-27.119L-11.623,-27.119L-13.731,-34.23L-25.894,-34.23L-25.894,44.727L-10.936,44.727L-10.936,22.511C-10.936,21.791 -11.198,19.144 -11.721,14.567L-10.936,14.567C-7.274,19.242 -2.224,21.579 4.218,21.579C8.501,21.579 12.228,20.451 15.399,18.195C18.57,15.94 21.015,12.654 22.731,8.338C24.447,4.023 25.306,-1.061 25.306,-6.914C25.306,-15.806 23.475,-22.755 19.813,-27.757" style="fill:rgb(33,56,112);fill-rule:nonzero;"/>
    </g>
    <g transform="matrix(4.10353,0,0,4.10353,418.54,286.709)">
        <ellipse cx="0" cy="-8.239" rx="8.238" ry="8.239" style="fill:rgb(33,56,112);"/>
    </g>
    <g transform="matrix(4.10353,0,0,4.10353,601.043,266.279)">
        <path d="M0,15.195L0,8.271C0,7.399 -0.198,6.748 -0.596,6.318C-0.993,5.888 -1.614,5.674 -2.461,5.674C-3.587,5.674 -4.409,5.98 -4.927,6.591C-5.444,7.204 -5.703,8.207 -5.703,9.599L-5.703,15.195L-7.324,15.195L-7.324,0L-5.703,0L-5.703,4.599C-5.703,5.153 -5.729,5.612 -5.781,5.976L-5.684,5.976C-5.364,5.463 -4.91,5.057 -4.321,4.76C-3.732,4.465 -3.06,4.316 -2.305,4.316C-0.996,4.316 -0.015,4.628 0.64,5.249C1.294,5.871 1.621,6.859 1.621,8.213L1.621,15.195L0,15.195Z" style="fill:rgb(33,56,112);fill-rule:nonzero;"/>
    </g>
    <g transform="matrix(4.10353,0,0,4.10353,638.111,323.864)">
        <path d="M0,-8.379C-0.859,-8.379 -1.545,-8.099 -2.056,-7.539C-2.566,-6.979 -2.868,-6.204 -2.959,-5.215L2.637,-5.215C2.637,-6.236 2.409,-7.02 1.953,-7.564C1.497,-8.107 0.847,-8.379 0,-8.379M0.439,1.357C-1.143,1.357 -2.391,0.876 -3.306,-0.088C-4.221,-1.051 -4.678,-2.389 -4.678,-4.102C-4.678,-5.826 -4.253,-7.197 -3.403,-8.213C-2.554,-9.229 -1.413,-9.736 0.02,-9.736C1.36,-9.736 2.422,-9.295 3.203,-8.413C3.984,-7.53 4.375,-6.367 4.375,-4.922L4.375,-3.897L-2.998,-3.897C-2.966,-2.64 -2.648,-1.686 -2.046,-1.035C-1.443,-0.384 -0.596,-0.059 0.498,-0.059C1.65,-0.059 2.79,-0.299 3.916,-0.781L3.916,0.664C3.343,0.912 2.801,1.089 2.29,1.196C1.779,1.304 1.162,1.357 0.439,1.357" style="fill:rgb(33,56,112);fill-rule:nonzero;"/>
    </g>
    <g transform="matrix(4.10353,0,0,4.10353,679.387,289.482)">
        <path d="M0,8.398C1.009,8.398 1.802,8.122 2.378,7.568C2.954,7.015 3.242,6.24 3.242,5.244L3.242,4.277L1.621,4.345C0.332,4.391 -0.598,4.591 -1.167,4.946C-1.736,5.301 -2.021,5.853 -2.021,6.601C-2.021,7.187 -1.844,7.633 -1.489,7.939C-1.135,8.246 -0.638,8.398 0,8.398M3.662,9.541L3.34,8.017L3.262,8.017C2.728,8.688 2.195,9.142 1.665,9.379C1.135,9.618 0.472,9.736 -0.322,9.736C-1.384,9.736 -2.215,9.462 -2.817,8.916C-3.42,8.369 -3.721,7.591 -3.721,6.582C-3.721,4.42 -1.992,3.288 1.465,3.183L3.281,3.125L3.281,2.461C3.281,1.621 3.101,1.001 2.739,0.6C2.378,0.2 1.8,0 1.006,0C0.114,0 -0.896,0.273 -2.021,0.82L-2.52,-0.42C-1.992,-0.706 -1.414,-0.931 -0.786,-1.094C-0.158,-1.256 0.472,-1.338 1.104,-1.338C2.38,-1.338 3.325,-1.055 3.94,-0.489C4.556,0.078 4.863,0.986 4.863,2.236L4.863,9.541L3.662,9.541Z" style="fill:rgb(33,56,112);fill-rule:nonzero;"/>
    </g>
    <g transform="matrix(-4.10353,0,0,4.10353,2930.92,-261.106)">
        <rect x="538.858" y="128.52" width="1.621" height="15.195" style="fill:rgb(33,56,112);"/>
    </g>
    <g transform="matrix(4.10353,0,0,4.10353,747.993,280.023)">
        <path d="M0,10.703C0.286,10.703 0.563,10.682 0.83,10.64C1.097,10.598 1.309,10.554 1.465,10.508L1.465,11.748C1.289,11.833 1.03,11.903 0.688,11.958C0.347,12.014 0.039,12.041 -0.234,12.041C-2.305,12.041 -3.34,10.951 -3.34,8.769L-3.34,2.402L-4.873,2.402L-4.873,1.621L-3.34,0.947L-2.656,-1.338L-1.719,-1.338L-1.719,1.142L1.387,1.142L1.387,2.402L-1.719,2.402L-1.719,8.701C-1.719,9.346 -1.565,9.841 -1.26,10.185C-0.954,10.531 -0.534,10.703 0,10.703" style="fill:rgb(33,56,112);fill-rule:nonzero;"/>
    </g>
    <g transform="matrix(4.10353,0,0,4.10353,792.835,266.279)">
        <path d="M0,15.195L0,8.271C0,7.399 -0.198,6.748 -0.596,6.318C-0.993,5.888 -1.614,5.674 -2.461,5.674C-3.587,5.674 -4.409,5.98 -4.927,6.591C-5.444,7.204 -5.703,8.207 -5.703,9.599L-5.703,15.195L-7.324,15.195L-7.324,0L-5.703,0L-5.703,4.599C-5.703,5.153 -5.729,5.612 -5.781,5.976L-5.684,5.976C-5.364,5.463 -4.91,5.057 -4.321,4.76C-3.732,4.465 -3.06,4.316 -2.305,4.316C-0.996,4.316 -0.015,4.628 0.64,5.249C1.294,5.871 1.621,6.859 1.621,8.213L1.621,15.195L0,15.195Z" style="fill:rgb(33,56,112);fill-rule:nonzero;"/>
    </g>
    <g transform="matrix(4.10353,0,0,4.10353,557.816,323.058)">
        <path d="M0,0C0,0.751 -0.608,1.359 -1.359,1.359C-2.109,1.359 -2.719,0.751 -2.719,0C-2.719,-0.751 -2.109,-1.359 -1.359,-1.359C-0.608,-1.359 0,-0.751 0,0" style="fill:rgb(33,56,112);fill-rule:nonzero;"/>
    </g>
</svg>
